<?xml version="1.0" encoding="utf-8"?>
<!-- Generator: Adobe Illustrator 16.0.0, SVG Export Plug-In . SVG Version: 6.00 Build 0)  -->
<!DOCTYPE svg PUBLIC "-//W3C//DTD SVG 1.1//EN" "http://www.w3.org/Graphics/SVG/1.1/DTD/svg11.dtd">
<svg version="1.1" id="Calque_1" xmlns="http://www.w3.org/2000/svg" xmlns:xlink="http://www.w3.org/1999/xlink" x="0px" y="0px"
	 width="1920px" height="1080px" viewBox="0 0 1920 1080" enable-background="new 0 0 1920 1080" xml:space="preserve">
<g>
	<path fill-rule="evenodd" clip-rule="evenodd" fill="#C1272D" d="M765.824,656.833c-11.332,0.028-22.665-0.009-33.995,0.13
		c-2.751,0.034-3.814-0.773-3.804-3.666c0.087-24.833,0.057-49.666,0.038-74.498c-0.001-1.839,0.182-3.385,2.569-3.305
		c6.472,0.217,12.968-0.602,19.419,0.469c1.765,1.715,1.413,3.944,1.438,6.063c0.131,10.873-0.654,21.787,1.595,32.564
		c0.369,1.77,0.339,3.625,1.41,5.18c1.307,1.854,3.358,1.865,5.31,2.289c2.686,0.582,5.694,0.615,7.41,3.395
		c0.598,9.133,0.172,18.266,0.245,27.395C767.472,654.398,767.139,655.82,765.824,656.833z"/>
	<path fill-rule="evenodd" clip-rule="evenodd" fill="#C1272D" d="M961.74,656.839c-12.511,0.003-25.022,0.007-37.534,0.01
		c-1.845-1.431-1.69-3.495-1.692-5.481c-0.022-23.443-0.046-46.887,0.014-70.33c0.014-5.244,0.396-5.547,5.804-5.525
		c5.817,0.023,11.636-0.169,17.447,0.11c2.299,1.435,1.661,3.779,1.693,5.837c0.171,11.049-0.637,22.139,1.617,33.092
		c0.365,1.773,0.341,3.629,1.401,5.189c1.297,1.87,3.348,1.895,5.307,2.316c2.692,0.579,5.707,0.613,7.421,3.405
		c0.593,9.146,0.176,18.292,0.237,27.435C963.465,654.455,963.106,655.871,961.74,656.839z"/>
	<path fill-rule="evenodd" clip-rule="evenodd" fill="#C1272D" d="M922.718,656.785c-12.504-0.001-25.009-0.003-37.514-0.004
		c-0.976-0.756-1.589-1.746-1.58-2.98c0.076-9.623-0.777-19.264,0.467-28.865c2.072-2.162,4.741-2.927,7.608-3.07
		c4.022-0.2,5.511-2.369,6.232-6.242c2.107-11.33,1.417-22.734,1.598-34.123c0.032-2.049-0.664-4.403,1.645-5.862
		c6.31-0.31,12.618-0.024,18.922-0.153c2.082-0.043,3.445,0.258,3.436,2.898c-0.086,25.729,0.032,51.459-0.073,77.188
		C923.458,656.179,923.012,656.411,922.718,656.785z"/>
	<path fill-rule="evenodd" clip-rule="evenodd" fill="#C1272D" d="M1117.821,656.754c-12.239,0.044-24.479,0.088-36.718,0.131
		c-2.313-0.861-2.582-2.797-2.584-4.885c-0.029-24.091-0.044-48.182,0.015-72.273c0.003-1.331,0.062-2.678,1.108-3.711
		c7.421-1.02,14.865-0.467,22.301-0.318c2.181,1.557,1.489,3.904,1.527,5.975c0.199,10.967-0.671,21.979,1.607,32.85
		c0.375,1.784,0.33,3.658,1.391,5.236c1.291,1.87,3.344,1.881,5.293,2.311c2.686,0.592,5.69,0.637,7.414,3.402
		c0.682,9.107,0.192,18.219,0.283,27.325C1119.474,654.334,1119.188,655.773,1117.821,656.754z"/>
	<path fill-rule="evenodd" clip-rule="evenodd" fill="#C1272D" d="M1078.824,656.832c-12.506-0.023-25.013-0.046-37.519-0.068
		c-1.417-0.904-1.771-2.313-1.753-3.85c0.105-9.196-0.488-18.4,0.326-27.582c2.006-2.639,5.041-2.898,7.961-3.351
		c2.131-0.329,4.341-0.363,5.773-2.358c2.396-2.41,2.932-5.359,2.909-8.639c-0.067-9.919-0.062-19.84,0.005-29.759
		c0.013-1.913-0.502-4.044,1.437-5.491c7.071-0.25,14.141-0.67,21.198,0.219c0.709,3.783,0.307,7.604,0.314,11.401
		c0.048,21.401,0.042,42.802-0.012,64.202C1079.461,653.311,1080.122,655.211,1078.824,656.832z"/>
	<path fill-rule="evenodd" clip-rule="evenodd" fill="#C1272D" d="M804.858,656.773c-12.247,0.032-24.494,0.064-36.74,0.097
		c-1.29-0.466-1.615-1.477-1.613-2.73c0.008-9.362-0.046-18.725,0.041-28.087c0.006-0.666,0.374-1.245,0.806-1.752
		c2.08-1.486,4.387-2.389,6.959-2.428c4.623-0.068,5.929-2.721,6.697-6.957c1.981-10.923,1.346-21.894,1.5-32.858
		c0.03-2.138-0.329-4.382,1.41-6.134l0.041,0.025c6.28-1.023,12.605-0.16,18.902-0.451c2.362-0.108,3.237,1.289,3.516,3.336
		c0.135,0.992,0.116,1.994,0.116,2.992c0.012,22.98,0.02,45.962-0.014,68.942C806.476,652.885,806.892,655.178,804.858,656.773z"/>
	<path fill-rule="evenodd" clip-rule="evenodd" fill="#C1272D" d="M806.92,575.898c7.048-0.713,14.094-0.74,21.14,0.022
		c1.972,1.65,1.4,3.94,1.414,6.021c0.069,10.085-0.053,20.172,0.064,30.257c0.078,6.742,1.938,8.794,8.593,9.709
		c2.518,0.347,4.846,0.995,6.689,2.865c1.415,9.834,0.493,19.708,0.49,29.566c0,1.022-0.681,1.831-1.471,2.483
		c-12.23-0.019-24.46-0.037-36.691-0.055c-1.443-1.3-1.13-3.051-1.132-4.678c-0.025-23.799-0.022-47.598-0.004-71.396
		C806.014,579.051,805.77,577.335,806.92,575.898z"/>
	<path fill-rule="evenodd" clip-rule="evenodd" fill="#C1272D" d="M1192.791,656.884c-11.209-0.032-22.418-0.063-33.629-0.095
		c-1.342-0.996-1.635-2.432-1.622-3.971c0.074-9.107-0.357-18.218,0.239-27.311c1.783-2.872,4.882-2.951,7.707-3.494
		c1.945-0.375,3.933-0.481,5.121-2.397c1.74-5.916,2.598-11.978,2.833-18.078c0.262-6.788,0.017-13.594,0.089-20.391
		c0.02-1.915-0.508-4.065,1.533-5.452c5.148-0.436,10.303-0.046,15.449-0.209c2.033-0.064,3.018,0.572,3.012,2.811
		c-0.064,25.77,0.035,51.54-0.061,77.311C1193.461,656.191,1193.061,656.483,1192.791,656.884z"/>
	<path fill-rule="evenodd" clip-rule="evenodd" fill="#ED1C24" d="M750.969,575.977c10.667-0.724,21.334-0.85,31.999,0.061
		c1.18,3.892,0.443,7.877,0.489,11.812c0.125,10.606-0.066,21.216,0.102,31.82c0.059,3.71-1.33,5.093-4.962,4.874
		c-3.303-0.2-6.627-0.047-9.941-0.04c-0.957-0.022-1.912,0.19-2.87,0.026c-5.018-0.398-10.103,0.713-15.08-0.656
		C750.531,607.906,750.029,591.938,750.969,575.977z"/>
	<path fill-rule="evenodd" clip-rule="evenodd" fill="#C1272D" d="M1039.787,656.84c-12.503-0.024-25.006-0.048-37.51-0.072
		c-1.389-0.926-1.745-2.33-1.727-3.868c0.106-9.192-0.486-18.392,0.328-27.569c2.005-2.636,5.038-2.893,7.955-3.348
		c2.127-0.33,4.337-0.357,5.775-2.342c2.432-2.414,2.937-5.387,2.914-8.678c-0.069-9.799-0.061-19.6,0.002-29.398
		c0.012-1.934-0.492-4.039,1.187-5.65c1.774-0.693,3.574-0.485,5.377-0.161c2.042,1.646,1.338,3.967,1.384,6.041
		c0.24,11.112-0.52,22.236,1.509,33.313c0.792,4.329,2.322,6.674,6.822,6.848c2.548,0.099,4.872,0.977,6.527,3.112
		c0.381,10.012,0.071,20.023,0.165,30.032C1040.503,655.797,1040.318,656.38,1039.787,656.84z"/>
	<path fill-rule="evenodd" clip-rule="evenodd" fill="#C1272D" d="M1000.728,656.766c-12.498,0.029-24.996,0.06-37.494,0.09
		c-1.596-2.967-0.625-6.156-0.672-9.223c-0.115-7.471-0.21-14.949,0.051-22.418c1.905-2.4,4.601-2.971,7.45-3.331
		c6.241-0.788,8.309-3.054,8.393-9.452c0.135-10.299,0.002-20.6,0.07-30.898c0.013-1.932-0.5-4.041,1.208-5.639
		c1.773-0.654,3.567-0.479,5.364-0.137c2.031,1.65,1.33,3.971,1.375,6.045c0.24,11.109-0.52,22.23,1.509,33.305
		c0.792,4.328,2.319,6.673,6.819,6.848c2.547,0.098,4.872,0.974,6.529,3.106c0.387,9.829,0.068,19.657,0.164,29.483
		C1001.503,655.377,1001.551,656.221,1000.728,656.766z"/>
	<path fill-rule="evenodd" clip-rule="evenodd" fill="#C1272D" d="M882.863,656.855c-12.225-0.021-24.449-0.043-36.674-0.064
		c-1.362-1.107-1.178-2.674-1.172-4.15c0.039-8.989-0.165-17.98,0.101-26.959c1.331-3.064,4.369-3.01,6.945-3.611
		c2.047-0.477,4.25-0.377,5.548-2.461c1.726-5.936,2.578-12.018,2.827-18.133c0.271-6.641,0.028-13.301,0.083-19.951
		c0.016-1.945-0.407-4.062,1.461-5.541c1.684-0.693,3.375-0.814,5.078-0.067c1.824,1.491,1.408,3.591,1.418,5.522
		c0.054,9.911,0.059,19.823,0.002,29.734c-0.019,3.263,0.454,6.234,2.944,8.563c1.333,1.73,3.288,1.918,5.249,2.223
		c2.721,0.42,5.535,0.754,7.161,3.483c0.367,9.255,0.082,18.505,0.148,27.755C883.993,654.523,883.977,655.863,882.863,656.855z"/>
	<path fill-rule="evenodd" clip-rule="evenodd" fill="#C1272D" d="M1156.833,656.777c-12.23,0.012-24.461,0.024-36.691,0.036
		c-1.298-1.145-1.132-2.701-1.126-4.182c0.037-8.989-0.154-17.979,0.096-26.958c1.336-3.066,4.385-2.979,6.954-3.593
		c2.04-0.487,4.249-0.368,5.554-2.445c1.719-5.926,2.613-11.985,2.827-18.098c0.237-6.796,0.022-13.606,0.075-20.411
		c0.014-1.781-0.367-3.698,1.142-5.172c1.769-0.787,3.581-0.49,5.39-0.223c2.078,1.605,1.378,3.922,1.418,5.979
		c0.217,11.045-0.544,22.108,1.561,33.097c1.063,5.55,1.236,6.227,6.979,7.083c2.519,0.376,4.837,1.036,6.558,3.064
		c0.904,9.882,0.301,19.778,0.326,29.669C1157.896,655.492,1157.473,656.201,1156.833,656.777z"/>
	<path fill-rule="evenodd" clip-rule="evenodd" fill="#ED1C24" d="M1156.996,625.053c-2.977-2.243-6.426-1.143-9.623-1.118
		c-3.93,0.03-5.26-1.487-5.223-5.317c0.134-14.141,0.056-28.285,0.059-42.428c10.541-0.641,21.083-0.523,31.627-0.066
		c0.037,15.591,0.075,31.182,0.113,46.771c-4.855,2.044-10.009,0.279-14.955,1.172
		C1158.328,624.396,1157.662,624.725,1156.996,625.053z"/>
	<path fill-rule="evenodd" clip-rule="evenodd" fill="#ED1C24" d="M1134.924,622.902c-4.846,2.029-10,0.234-14.93,1.209
		c-0.668,0.313-1.335,0.627-2.002,0.939c-2.617-2.213-5.734-0.868-8.615-1.18c-2.121-0.229-4.344,0.278-6.309-0.967
		c0.028-15.607,0.057-31.215,0.084-46.822c10.563-0.43,21.125-0.428,31.687-0.002
		C1134.867,591.688,1134.896,607.295,1134.924,622.902z"/>
	<path fill-rule="evenodd" clip-rule="evenodd" fill="#ED1C24" d="M883.01,624.04c-4.588-0.065-9.176-0.13-13.764-0.194
		c-0.907-14.77-0.24-29.55-0.361-44.324c-0.028-3.448,2.381-3.4,4.814-3.42c8.468-0.069,16.936-0.172,25.403-0.262
		c0.272,0.049,0.535,0.125,0.79,0.232c0.021,14.229-0.065,28.461,0.133,42.688c0.054,3.867-1.185,5.438-5.103,5.183
		c-3.292-0.214-6.613,0.021-9.922,0.058C884.336,624.014,883.673,624.027,883.01,624.04z"/>
	<path fill-rule="evenodd" clip-rule="evenodd" fill="#ED1C24" d="M1040.02,624.042c-3.308-0.055-6.628-0.315-9.92-0.112
		c-3.896,0.24-5.188-1.283-5.134-5.169c0.196-14.228,0.112-28.46,0.135-42.69c10.285-0.004,20.57-0.009,30.854-0.014
		c0.055,15.667,0.109,31.334,0.164,47.001c-4.951,1.729-10.102,0.261-15.119,0.942l-0.494-0.053L1040.02,624.042z"/>
	<path fill-rule="evenodd" clip-rule="evenodd" fill="#ED1C24" d="M977.932,576.053c0.024,14.246-0.07,28.494,0.148,42.737
		c0.062,3.99-1.395,5.31-5.201,5.103c-3.295-0.18-6.616,0.1-9.926,0.176l-0.457-0.071l-0.459,0.06
		c-4.929-0.048-9.858-0.096-14.787-0.143c-0.062-15.959-0.124-31.918-0.186-47.876C957.354,576.043,967.643,576.047,977.932,576.053
		z"/>
	<path fill-rule="evenodd" clip-rule="evenodd" fill="#ED1C24" d="M1000.999,623.997c-3.478-0.042-6.96-0.235-10.429-0.083
		c-3.421,0.15-4.652-1.186-4.615-4.637c0.153-14.408,0.098-28.818,0.119-43.227c10.292,0.004,20.584,0.008,30.877,0.012
		c0.049,15.661,0.098,31.322,0.147,46.984c-4.942,1.746-10.085,0.27-15.094,0.943
		C1001.67,623.992,1001.334,623.995,1000.999,623.997z"/>
	<path fill-rule="evenodd" clip-rule="evenodd" fill="#ED1C24" d="M860.585,623.861c-5.205,0.104-10.411,0.208-15.616,0.313
		l-0.466-0.053l-0.468,0.016c-3.157-0.109-6.317-0.368-9.469-0.287c-3.272,0.086-4.912-0.982-4.881-4.553
		c0.112-12.987,0.097-25.976,0.02-38.963c-0.02-3.278,1.436-4.338,4.556-4.289c8.823,0.136,17.648,0.085,26.473,0.107
		C861.001,592.057,861.291,607.96,860.585,623.861z"/>
</g>
</svg>
